<?xml version="1.0" standalone="no"?>
<!DOCTYPE svg PUBLIC "-//W3C//DTD SVG 20010904//EN"
 "http://www.w3.org/TR/2001/REC-SVG-20010904/DTD/svg10.dtd">
<svg version="1.0" xmlns="http://www.w3.org/2000/svg"
 width="1400.000000pt" height="1600.000000pt" viewBox="0 0 1400.000000 1600.000000"
 preserveAspectRatio="xMidYMid meet">

<g transform="translate(0.000000,1600.000000) scale(0.100000,-0.100000)"
fill="#008000" stroke="none">
<path d="M6834 14486 c-401 -77 -695 -345 -802 -735 l-27 -96 -3 -2327 -2
-2328 -2328 -2 -2327 -3 -96 -27 c-363 -100 -630 -372 -721 -734 -33 -133 -31
-351 5 -486 94 -352 360 -618 716 -717 l96 -26 2327 -3 2328 -2 2 -2328 3
-2327 27 -97 c98 -355 365 -621 717 -716 84 -22 116 -25 251 -25 136 0 167 3
254 26 350 94 616 360 714 715 l27 97 3 2327 2 2328 2328 2 2327 3 99 27 c353
98 619 365 713 716 23 85 26 117 26 252 0 135 -3 167 -26 252 -94 351 -360
618 -713 716 l-99 27 -2327 3 -2328 2 -2 2328 -3 2327 -27 97 c-98 355 -367
624 -714 714 -122 32 -312 41 -420 20z"/>
</g>
</svg>
