<?xml version="1.0" standalone="no"?>
<!DOCTYPE svg PUBLIC "-//W3C//DTD SVG 20010904//EN"
 "http://www.w3.org/TR/2001/REC-SVG-20010904/DTD/svg10.dtd">
<svg version="1.0" xmlns="http://www.w3.org/2000/svg"
 width="1400.000000pt" height="1600.000000pt" viewBox="0 0 1400.000000 1600.000000"
 preserveAspectRatio="xMidYMid meet">

<g transform="translate(0.000000,1600.000000) scale(0.100000,-0.100000)"
fill="#7f2626" stroke="none">
<path d="M5000 15993 c-241 -38 -435 -134 -590 -292 -101 -102 -139 -162 -286
-453 l-124 -248 -1578 -3 -1577 -2 -80 -22 c-384 -104 -653 -380 -741 -758
-26 -110 -26 -320 0 -430 88 -378 357 -653 741 -758 l80 -22 6115 -3 c5432 -2
6125 0 6203 13 407 70 719 366 813 770 14 57 19 118 19 215 0 150 -17 243 -67
369 -115 291 -366 514 -673 598 l-100 28 -1577 3 -1578 2 -124 248 c-69 136
-143 274 -165 307 -132 200 -338 347 -580 413 l-96 27 -2005 1 c-1103 1 -2016
0 -2030 -3z"/>
<path d="M973 6898 c3 -4750 4 -5110 20 -5198 39 -215 119 -453 208 -620 282
-524 778 -904 1344 -1031 223 -50 31 -48 4431 -49 2828 0 4144 3 4215 11 249
25 469 87 684 193 629 309 1044 908 1115 1605 7 70 10 1722 10 5147 l0 5044
-6015 0 -6015 0 3 -5102z m3120 3087 c179 -38 319 -177 362 -357 13 -55 15
-518 15 -3628 0 -3925 5 -3627 -61 -3751 -41 -76 -132 -162 -212 -199 -193
-91 -418 -50 -572 105 -70 70 -129 176 -145 264 -14 74 -14 7088 0 7162 25
137 139 289 266 356 116 61 218 76 347 48z m3000 0 c195 -41 342 -181 392
-372 13 -50 15 -496 15 -3613 0 -3908 5 -3601 -60 -3730 -98 -194 -360 -310
-575 -255 -188 49 -351 220 -385 404 -14 74 -14 7088 0 7162 25 137 139 289
266 356 116 61 218 76 347 48z m3022 0 c97 -25 164 -64 235 -134 70 -71 110
-141 135 -236 13 -53 15 -454 15 -3615 0 -3899 5 -3604 -58 -3730 -35 -71
-141 -177 -212 -212 -132 -66 -271 -74 -406 -24 -130 49 -246 166 -295 298
l-24 63 -3 3579 c-2 3189 0 3587 13 3640 25 97 63 165 135 236 126 127 300
177 465 135z"/>
</g>
</svg>
